<svg xmlns="http://www.w3.org/2000/svg" xmlns:xlink="http://www.w3.org/1999/xlink" width="120" height="120" viewBox="0 0 60 60">
  <defs>
    <style>
      .cls-1 {
        fill-rule: evenodd;
        fill: url(#linear-gradient);
      }
    </style>
    <linearGradient id="linear-gradient" x1="1334.12" y1="72.348" x2="1392.94" y2="13.527" gradientUnits="userSpaceOnUse">
      <stop offset="0" stop-color="#ed6100"/>
      <stop offset="0.002" stop-color="#ed6100"/>
      <stop offset="0.986" stop-color="#ffbd00"/>
      <stop offset="1" stop-color="#ffbd00"/>
    </linearGradient>
  </defs>
  <path id="形状_539" data-name="形状 539" class="cls-1" d="M1351.01,14.77c-1.47.325-2.89,0.58-4.23,0.778-0.31.17-.73,0.419-1.23,0.739a27.27,27.27,0,0,0-4.53,3.736,24.625,24.625,0,0,0-5.29,8.521c0.03,16.15.01,28.066-.03,28.751a9.223,9.223,0,0,1-.26,1.7h0c-0.07.258-.28,1.063-0.66,2.091-0.16.437-.38,0.97-0.66,1.568l9.87-8.362c0.07-1.053.15-2.424,0.21-4.029,0.12-3.439.06-6.021,0.04-6.783s-0.06-2.544-.22-4.852c-0.17-2.506-.4-4.678-0.62-6.426l-0.01-.093,0.06-.069a39.471,39.471,0,0,1,14.51-10.028l0.22,0.338a15.8,15.8,0,0,0-4.88,8.8,51.566,51.566,0,0,0-.71,12.958c0.08,2.229.23,3.341,0.4,5.6,0.04,0.637.08,1.174,0.1,1.646,0.03,0.525.06,1.069,0.1,1.826,0.03,0.843.09,2.144,0.14,3.855L1334.52,73.1a76.782,76.782,0,0,1,8.94-1.829c1.62-.226,3.48-0.4,3.73-0.429,0,0,2.2-.217,4.56-0.355,1.55-.091,7.35-0.368,14.72-0.109,2.02,0.071,3.74.168,4.75,0.23,1.95,0.119,3.67.256,5.13,0.386a18.583,18.583,0,0,0,9.57-4.983,18.363,18.363,0,0,0,4.77-8.172q0-13.106.01-26.213a13.452,13.452,0,0,1,0-1.5,12.254,12.254,0,0,1,.53-2.756,17.034,17.034,0,0,1,1.71-3.92q-5.2,4.442-10.4,8.885c-0.23,3.11-.35,6.487-0.3,10.1a113.836,113.836,0,0,0,.79,11.9l0.01,0.09-0.06.068a37.251,37.251,0,0,1-4.49,4.276,37.844,37.844,0,0,1-10.02,5.753l-0.23-.325a20.7,20.7,0,0,0,2.87-4.084c0.19-.358.38-0.751,0.58-1.2a23.571,23.571,0,0,0,1.69-5.956,50.1,50.1,0,0,0,.64-6.876,59.694,59.694,0,0,0-.16-6.429q-5.4,4.573-10.79,9.146-4.245-4.209-8.5-8.419V40.306a26.31,26.31,0,0,1,.16-5.173,26.694,26.694,0,0,1,1.08-4.75l0.11-.326q3.645,3.95,7.28,7.9l28.95-24.695a38.9,38.9,0,0,1-6.81,2.364,39.674,39.674,0,0,1-6.78,1.051,70.3,70.3,0,0,1-17.5-1.25,48.746,48.746,0,0,0-6.1,1.535c-1.22.395-2.37,0.817-3.43,1.252l-0.42-.525c0.56-.521,1.17-1.05,1.83-1.576a32.316,32.316,0,0,1,5.05-3.327,60.881,60.881,0,0,1-6.98,1.985" transform="translate(-1333.53 -12.938)"/>
</svg>
